HIERARCHY
ROOT Pelvis
{
	OFFSET 0.000000 0.000000 0.000000
	CHANNELS 6 Xposition Yposition Zposition Xrotation Yrotation Zrotation
	JOINT LeftUpLeg_virtual
	{
		OFFSET 0.000000 0.000000 0.000000
		CHANNELS 3 Xrotation Yrotation Zrotation
		JOINT LeftUpLeg
		{
			OFFSET 8.479700 -4.795502 -0.379100
			CHANNELS 3 Xrotation Yrotation Zrotation
			JOINT LeftLeg
			{
				OFFSET 0.024144 -32.555107 0.112900
				CHANNELS 3 Xrotation Yrotation Zrotation
				JOINT LeftFoot
				{
					OFFSET -0.024144 -32.638630 -3.012600
					CHANNELS 3 Xrotation Yrotation Zrotation
					JOINT LeftToeBase
					{
						OFFSET 0.970200 -13.225400 11.864200
						CHANNELS 3 Xrotation Yrotation Zrotation
						End Site
						{
							OFFSET 0 0 0
						}
					}
				}
			}
		}
	}
	JOINT RightUpLeg_virtual
	{
		OFFSET 0.000000 0.000000 0.000000
		CHANNELS 3 Xrotation Yrotation Zrotation
		JOINT RightUpLeg
		{
			OFFSET -8.479700 -4.795502 -0.379100
			CHANNELS 3 Xrotation Yrotation Zrotation
			JOINT RightLeg
			{
				OFFSET -0.023144 -32.555092 0.112900
				CHANNELS 3 Xrotation Yrotation Zrotation
				JOINT RightFoot
				{
					OFFSET 0.023144 -32.638641 -3.012700
					CHANNELS 3 Xrotation Yrotation Zrotation
					JOINT RightToeBase
					{
						OFFSET -0.970200 -13.225400 11.864200
						CHANNELS 3 Xrotation Yrotation Zrotation
						End Site
						{
							OFFSET 0 0 0
						}
					}
				}
			}
		}
	}
	JOINT Hips_virtual
	{
		OFFSET 0.000000 0.000000 0.000000
		CHANNELS 3 Xrotation Yrotation Zrotation
		JOINT Hips
		{
			OFFSET -0.000000 -0.000000 -0.000000
			CHANNELS 3 Xrotation Yrotation Zrotation
			JOINT Spine
			{
				OFFSET 0.000000 7.722000 1.166200
				CHANNELS 3 Xrotation Yrotation Zrotation
				JOINT Spine1
				{
					OFFSET 0.000000 12.024101 0.248800
					CHANNELS 3 Xrotation Yrotation Zrotation
					JOINT Spine2
					{
						OFFSET 0.000000 11.502998 -0.491200
						CHANNELS 3 Xrotation Yrotation Zrotation
						JOINT Neck_virtual
						{
							OFFSET 0.000000 0.000000 0.000000
							CHANNELS 3 Xrotation Yrotation Zrotation
							JOINT Neck
							{
								OFFSET 0.000000 18.430702 -3.123100
								CHANNELS 3 Xrotation Yrotation Zrotation
								JOINT Head
								{
									OFFSET 0.000000 9.051102 1.034000
									CHANNELS 3 Xrotation Yrotation Zrotation
									End Site
									{
										OFFSET 0 0 0
									}
								}
							}
						}
						JOINT LeftShoulder_virtual
						{
							OFFSET 0.000000 0.000000 0.000000
							CHANNELS 3 Xrotation Yrotation Zrotation
							JOINT LeftShoulder
							{
								OFFSET 6.197800 13.665199 -4.064700
								CHANNELS 3 Xrotation Yrotation Zrotation
								JOINT LeftArm
								{
									OFFSET 7.778100 -0.187103 -1.709300
									CHANNELS 3 Xrotation Yrotation Zrotation
									JOINT LeftForeArm
									{
										OFFSET 22.049376 0.000000 0.000000
										CHANNELS 3 Xrotation Yrotation Zrotation
										JOINT LeftHand
										{
											OFFSET 23.009392 0.000000 0.000000
											CHANNELS 3 Xrotation Yrotation Zrotation
											End Site
											{
												OFFSET 0 0 0
											}
										}
									}
								}
							}
						}
						JOINT RightShoulder_virtual
						{
							OFFSET 0.000000 0.000000 0.000000
							CHANNELS 3 Xrotation Yrotation Zrotation
							JOINT RightShoulder
							{
								OFFSET -6.197800 13.665199 -4.064700
								CHANNELS 3 Xrotation Yrotation Zrotation
								JOINT RightArm
								{
									OFFSET -7.778100 -0.187103 -1.709300
									CHANNELS 3 Xrotation Yrotation Zrotation
									JOINT RightForeArm
									{
										OFFSET -22.049376 0.000000 0.000000
										CHANNELS 3 Xrotation Yrotation Zrotation
										JOINT RightHand
										{
											OFFSET -23.009392 0.000000 0.000000
											CHANNELS 3 Xrotation Yrotation Zrotation
											End Site
											{
												OFFSET 0 0 0
											}
										}
									}
								}
							}
						}
					}
				}
			}
		}
	}
}
MOTION
Frames: 8
Frame Time: 0.03333333
5.493806 78.458046 87.569275 0.000000 0.000000 0.000000 23.882335 24.438186 -7.534087 -49.463315 6.973653 12.503343 47.820381 9.200114 -5.355028 0.587664 28.817439 -3.947200 0.000000 0.000000 0.000000 23.882335 24.438186 -7.534087 -52.093306 -4.332269 -4.903915 34.649577 -6.840896 -4.582891 -3.156184 -6.602769 4.986759 0.000000 0.000000 0.000000 23.882335 24.438186 -7.534087 -0.000001 0.000000 0.000000 11.225196 -0.841062 2.230458 6.689007 -2.739664 0.561830 0.000000 0.000000 0.000000 6.767269 -2.647715 0.806087 -7.061399 0.651892 3.401813 0.000000 0.000000 0.000000 6.767269 -2.647715 0.806087 1.518826 -7.209061 -6.123048 -29.320902 -21.016004 -35.448463 0.000001 -29.544946 0.000008 0.000000 0.000000 0.000000 6.767269 -2.647715 0.806087 2.382977 6.831227 2.707433 -16.474830 -9.604021 53.071601 0.000010 62.536570 0.000004 0.000000 0.000000 0.000000 
5.700448 79.296967 88.796021 0.000000 0.000000 0.000000 24.080646 25.251510 -7.829915 -49.681659 7.170444 11.455230 44.369042 9.341870 -5.352021 1.587343 29.478868 -4.317509 0.000000 0.000000 0.000000 24.080646 25.251510 -7.829915 -49.191712 -4.596786 -4.718519 31.510630 -6.736340 -4.591184 -2.923114 -7.505614 4.889861 0.000000 0.000000 0.000000 24.080646 25.251510 -7.829915 0.000001 0.000001 -0.000000 10.990274 -0.349257 2.180159 6.739181 -2.514409 0.541703 0.000000 0.000000 0.000000 6.813280 -2.447950 0.778873 -6.528698 0.281442 2.942689 0.000000 0.000000 0.000000 6.813280 -2.447950 0.778873 1.571538 -7.049209 -6.199197 -27.840556 -21.494295 -35.479486 0.000002 -28.581698 -0.000020 0.000000 0.000000 0.000000 6.813280 -2.447950 0.778873 2.412605 6.644260 2.840663 -17.278019 -10.440144 53.740068 0.000006 64.466904 -0.000004 0.000000 0.000000 0.000000 
5.881114 79.965485 90.034164 0.000000 0.000000 0.000000 24.242971 26.108337 -8.142508 -49.705076 7.244508 10.748655 40.869991 10.113470 -5.416080 3.621596 29.844167 -5.909992 0.000000 0.000000 0.000000 24.242971 26.108337 -8.142508 -46.567130 -5.011206 -4.531606 28.904292 -6.553003 -4.593294 -2.932083 -8.395610 4.729102 0.000000 0.000000 0.000000 24.242971 26.108337 -8.142508 0.000001 0.000002 -0.000000 10.740583 0.154051 2.169830 6.787119 -2.287286 0.523220 0.000000 0.000000 0.000000 6.856934 -2.249070 0.744100 -6.145213 0.029306 2.502970 0.000000 0.000000 0.000000 6.856934 -2.249070 0.744100 1.618582 -6.835510 -6.264187 -26.441483 -21.915700 -35.489642 0.000004 -27.829490 -0.000002 0.000000 0.000000 0.000000 6.856934 -2.249070 0.744100 2.446341 6.435830 2.980740 -17.981416 -11.167555 54.420605 0.000036 66.639519 -0.000024 0.000000 0.000000 0.000000 
6.068944 80.458397 91.152893 0.000000 0.000000 0.000000 24.340098 26.999608 -8.509759 -49.806269 7.299176 10.184347 37.212411 10.108321 -5.403788 6.483307 29.802721 -8.324620 0.000000 0.000000 0.000000 24.340098 26.999608 -8.509759 -44.294361 -5.546794 -4.353337 26.902411 -6.277940 -4.587240 -3.118182 -9.298424 4.587775 0.000000 0.000000 0.000000 24.340098 26.999608 -8.509759 0.000000 0.000000 0.000000 10.477165 0.673892 2.178757 6.831991 -2.056081 0.504974 0.000000 0.000000 0.000000 6.898566 -2.042590 0.728345 -5.916528 -0.334469 1.914443 0.000000 0.000000 0.000000 6.898566 -2.042590 0.728345 1.646207 -6.617209 -6.320240 -25.016642 -22.020561 -35.430216 -0.000008 -27.294802 -0.000014 0.000000 0.000000 0.000000 6.898566 -2.042590 0.728345 2.483101 6.243177 3.110967 -18.599628 -11.797023 55.140431 -0.000009 68.895340 0.000005 0.000000 0.000000 0.000000 
6.275347 80.735001 92.237762 0.000000 0.000000 0.000000 24.366544 27.959511 -8.945538 -49.946083 7.295996 9.846838 34.147230 10.099500 -5.351218 9.373258 29.754216 -10.708739 0.000000 0.000000 0.000000 24.366544 27.959511 -8.945538 -42.510380 -6.233480 -4.192870 25.926751 -6.026287 -4.570147 -3.773387 -10.124878 4.467570 0.000000 0.000000 0.000000 24.366544 27.959511 -8.945538 -0.000002 -0.000003 -0.000000 10.198873 1.250950 2.220510 6.872419 -1.748159 0.478841 0.000000 0.000000 0.000000 6.935688 -1.762654 0.687622 -5.731396 -0.678805 1.445524 0.000000 0.000000 0.000000 6.935688 -1.762654 0.687622 1.650697 -6.391019 -6.371705 -23.539740 -22.127393 -35.245443 0.000008 -27.532733 0.000003 0.000000 0.000000 0.000000 6.935688 -1.762654 0.687622 2.521240 6.103425 3.214542 -19.050586 -12.399783 55.928628 0.000036 71.237425 -0.000056 0.000000 0.000000 0.000000 
6.405103 80.849831 93.283478 0.000000 0.000000 0.000000 24.351612 28.939037 -9.390435 -50.246854 7.269870 9.678575 31.962355 10.082712 -5.340473 10.548391 29.720817 -12.916746 0.000000 0.000000 0.000000 24.351612 28.939037 -9.390435 -41.139052 -6.740067 -3.913286 25.762741 -5.680865 -4.539183 -4.762714 -11.276848 4.287107 0.000000 0.000000 0.000000 24.351612 28.939037 -9.390435 0.000000 0.000001 0.000000 9.909565 1.786006 2.301691 6.908627 -1.480095 0.454692 0.000000 0.000000 0.000000 6.968648 -1.523520 0.640996 -5.743950 -0.891002 0.934302 0.000000 0.000000 0.000000 6.968648 -1.523520 0.640996 1.637109 -6.153077 -6.388579 -22.030958 -21.702405 -34.916900 -0.000010 -29.175361 -0.000005 0.000000 0.000000 0.000000 6.968648 -1.523520 0.640996 2.560405 6.053432 3.268359 -19.362792 -12.513663 56.730639 0.000025 73.390355 -0.000021 0.000000 0.000000 0.000000 
6.496023 80.786873 94.419189 0.000000 0.000000 0.000000 24.331265 29.934424 -9.845946 -51.030601 7.299556 9.450006 30.581591 10.052821 -5.370901 10.060221 29.753602 -12.277930 0.000000 0.000000 0.000000 24.331265 29.934424 -9.845946 -40.193420 -7.209026 -3.564111 26.598621 -5.327785 -4.498207 -6.329753 -12.538832 4.036145 0.000000 0.000000 0.000000 24.331265 29.934424 -9.845946 -0.000001 -0.000001 0.000001 9.610935 2.239537 2.426678 6.938817 -1.200939 0.394678 0.000000 0.000000 0.000000 6.995878 -1.243777 0.556804 -5.860919 -1.216352 0.345770 0.000000 0.000000 0.000000 6.995878 -1.243777 0.556804 1.600686 -5.900226 -6.378138 -20.631035 -20.820198 -34.468437 -0.000002 -31.483074 -0.000010 0.000000 0.000000 0.000000 6.995878 -1.243777 0.556804 2.569336 6.276832 3.284420 -19.444169 -12.478117 57.433066 0.000010 75.730160 -0.000017 0.000000 0.000000 0.000000 
6.596772 80.413574 95.499939 0.000000 0.000000 0.000000 24.296328 30.918610 -10.344548 -52.187338 7.282756 9.387031 30.748525 10.015287 -5.417987 9.679925 29.759756 -12.747524 0.000000 0.000000 0.000000 24.296328 30.918610 -10.344548 -40.109135 -7.934833 -3.327225 29.033153 -4.859474 -4.474769 -8.672786 -13.690161 3.743259 0.000000 0.000000 0.000000 24.296328 30.918610 -10.344548 -0.000001 0.000002 0.000000 9.293644 2.751047 2.683166 6.962404 -0.911127 0.276975 0.000000 0.000000 0.000000 7.017161 -0.977865 0.420678 -6.036376 -1.635927 -0.213653 0.000000 0.000000 0.000000 7.017161 -0.977865 0.420678 1.532106 -5.629584 -6.367323 -19.307365 -19.703690 -33.769760 -0.000018 -34.763163 -0.000004 0.000000 0.000000 0.000000 7.017161 -0.977865 0.420678 2.590659 6.667836 3.159106 -19.586182 -12.408372 58.225607 0.000004 77.550501 0.000006 0.000000 0.000000 0.000000 
